<svg width="24" height="24" viewBox="0 0 19 22" fill="none" xmlns="http://www.w3.org/2000/svg">
<path d="M5.5 13.001C4.94772 13.001 4.5 13.4487 4.5 14.001C4.5 14.5533 4.94772 15.001 5.5 15.001H12.5C13.0523 15.001 13.5 14.5533 13.5 14.001C13.5 13.4487 13.0523 13.001 12.5 13.001H5.5Z" fill="#1890FF"/>
<path d="M4.5 17.001C4.5 16.4487 4.94772 16.001 5.5 16.001H9C9.55228 16.001 10 16.4487 10 17.001C10 17.5533 9.55228 18.001 9 18.001H5.5C4.94772 18.001 4.5 17.5533 4.5 17.001Z" fill="#1890FF"/>
<path fill-rule="evenodd" clip-rule="evenodd" d="M5.5 4.00098C4.94772 4.00098 4.5 4.44869 4.5 5.00098V10.001C4.5 10.5533 4.94772 11.001 5.5 11.001H12.5C13.0523 11.001 13.5 10.5533 13.5 10.001V5.00098C13.5 4.44869 13.0523 4.00098 12.5 4.00098H5.5ZM6.5 9.00098V6.00098H11.5V9.00098H6.5Z" fill="#1890FF"/>
<path fill-rule="evenodd" clip-rule="evenodd" d="M2.5 0.000976562C1.39543 0.000976562 0.5 0.896407 0.5 2.00098V20.001C0.5 21.1056 1.39544 22.001 2.5 22.001H16.5C17.6046 22.001 18.5 21.1056 18.5 20.001V2.00098C18.5 0.896417 17.6046 0.000976562 16.5 0.000976562H2.5ZM2.5 2.00098H16.5V20.001H2.5V2.00098Z" fill="#1890FF"/>
</svg>
