<svg width="22" height="22" viewBox="0 0 22 22" fill="none" xmlns="http://www.w3.org/2000/svg">
<path d="M12.25 5.75098C12.25 5.06063 11.6903 4.50098 11 4.50098C10.3097 4.50098 9.75 5.06063 9.75 5.75098C9.75 6.44133 10.3097 7.00098 11 7.00098C11.6903 7.00098 12.25 6.44133 12.25 5.75098Z" fill="#1890FF"/>
<path d="M9.25 9.00098C9.25 8.44869 9.69771 8.00098 10.25 8.00098H11.25C11.8023 8.00098 12.25 8.44869 12.25 9.00098V15.001H13C13.5523 15.001 14 15.4487 14 16.001C14 16.5533 13.5523 17.001 13 17.001H9.5C8.94771 17.001 8.5 16.5533 8.5 16.001C8.5 15.4487 8.94771 15.001 9.5 15.001H10.25V10.001C9.69771 10.001 9.25 9.55326 9.25 9.00098Z" fill="#1890FF"/>
<path fill-rule="evenodd" clip-rule="evenodd" d="M11 0.000976562C7.96273 0.000976562 5.21136 1.23329 3.22183 3.22279C1.23233 5.21233 0 7.96371 0 11.001C0 14.0382 1.23231 16.7896 3.22182 18.7791C5.21135 20.7686 7.96273 22.001 11 22.001C14.0373 22.001 16.7886 20.7687 18.7782 18.7791C20.7677 16.7896 22 14.0382 22 11.001C22 7.96371 20.7677 5.21234 18.7782 3.2228C16.7886 1.2333 14.0373 0.000976562 11 0.000976562ZM4.63603 4.63702C6.26584 3.00724 8.51447 2.00098 11 2.00098C13.4855 2.00098 15.7342 3.00724 17.3639 4.63702C18.9937 6.26682 20 8.51545 20 11.001C20 13.4865 18.9937 15.7351 17.3639 17.3649C15.7342 18.9947 13.4855 20.001 11 20.001C8.51447 20.001 6.26584 18.9947 4.63604 17.3649C3.00626 15.7351 2 13.4865 2 11.001C2 8.51545 3.00625 6.26682 4.63603 4.63702Z" fill="#1890FF"/>
</svg>
